<svg width="10" height="11" viewBox="0 0 10 11" fill="none" xmlns="http://www.w3.org/2000/svg">
<path d="M8.77234 0.875H6.42859L6.23328 0.523438C6.15515 0.367188 5.9989 0.25 5.82312 0.25H3.57703C3.40125 0.25 3.245 0.367188 3.16687 0.523438L2.99109 0.875H0.647339C0.471558 0.875 0.334839 1.03125 0.334839 1.1875V1.8125C0.334839 1.98828 0.471558 2.125 0.647339 2.125H8.77234C8.92859 2.125 9.08484 1.98828 9.08484 1.8125V1.1875C9.08484 1.03125 8.92859 0.875 8.77234 0.875ZM1.37 9.37109C1.38953 9.87891 1.79968 10.25 2.3075 10.25H7.09265C7.60046 10.25 8.01062 9.87891 8.03015 9.37109L8.45984 2.75H0.959839L1.37 9.37109Z" fill="#868E96"/>
</svg>
